<svg width="25" height="26" viewBox="0 0 25 26" fill="none" xmlns="http://www.w3.org/2000/svg">
<path d="M17.5 3.00002H21.25C21.913 3.00002 22.5489 3.26341 23.0178 3.73225C23.4866 4.20109 23.75 4.83697 23.75 5.50001V6.75002M17.5 23H21.25C21.913 23 22.5489 22.7366 23.0178 22.2678C23.4866 21.7989 23.75 21.1631 23.75 20.5V19.25M8.75125 13H8.75M23.75 13H17.5M17.5 13L20 10.5M17.5 13L20 15.5M3.03125 22.285L10.5313 24.535C10.9046 24.6471 11.299 24.6703 11.6829 24.6028C12.0668 24.5353 12.4297 24.379 12.7424 24.1463C13.0551 23.9136 13.3091 23.6109 13.4841 23.2626C13.659 22.9143 13.7501 22.5298 13.75 22.14V3.86002C13.7501 3.4702 13.659 3.08577 13.4841 2.73743C13.3091 2.38909 13.0551 2.08648 12.7424 1.85378C12.4297 1.62108 12.0668 1.46474 11.6829 1.39723C11.299 1.32973 10.9046 1.35294 10.5313 1.46502L3.03125 3.71502C2.51628 3.8696 2.06486 4.18609 1.74399 4.61752C1.42311 5.04895 1.24988 5.57234 1.25 6.11001V19.89C1.24988 20.4277 1.42311 20.9511 1.74399 21.3825C2.06486 21.8139 2.51628 22.1304 3.03125 22.285V22.285Z" stroke="white" stroke-width="1.66667" stroke-linecap="round" stroke-linejoin="round"/>
</svg>
