<svg width="14" height="20" viewBox="0 0 14 20" fill="none" xmlns="http://www.w3.org/2000/svg">
<path d="M13.399 7.643V10.4C13.399 12.636 11.756 15.029 8.00001 15.359V18H10.6C10.82 18 11 18.18 11 18.4V19.6C11 19.821 10.819 20 10.6 20H3.40001C3.18001 20 3.00001 19.82 3.00001 19.6V18.4C3.00001 18.18 3.18001 18 3.39901 18H6.00001V15.359C2.24201 15.029 0.600006 12.636 0.600006 10.4V7.643C0.600006 7.53691 0.642149 7.43517 0.717164 7.36016C0.792178 7.28514 0.89392 7.243 1.00001 7.243H1.60001C1.82001 7.243 2.00001 7.423 2.00001 7.643V10.4C2.00001 11.736 3.05301 14 7.00001 14C10.946 14 12 11.736 12 10.4V7.643C12 7.53709 12.042 7.4355 12.1168 7.36051C12.1916 7.28552 12.2931 7.24326 12.399 7.243H13C13.0525 7.243 13.1045 7.25335 13.1529 7.27347C13.2014 7.29358 13.2454 7.32306 13.2825 7.36022C13.3196 7.39737 13.3489 7.44148 13.3689 7.49C13.3889 7.53853 13.3991 7.59052 13.399 7.643ZM7.00001 12C9.34601 12 10 11.035 10 10.4V7.242H4.00001V10.4C4.00001 11.035 4.65201 12 7.00001 12ZM10 1.6C10 0.963 9.34601 0 7.00001 0C4.65201 0 4.00001 0.963 4.00001 1.6V5.842H10V1.6Z" fill="#4273F0"/>
</svg>
