<svg width="15" height="18" viewBox="0 0 15 18" fill="none" xmlns="http://www.w3.org/2000/svg">
<path d="M13 5.5125V11.835C12.5234 11.5598 11.9693 11.4496 11.4237 11.5215C10.878 11.5933 10.3714 11.8432 9.98222 12.2323C9.59308 12.6215 9.34322 13.1281 9.27139 13.6738C9.19956 14.2194 9.30978 14.7735 9.58496 15.2501C9.86013 15.7267 10.2849 16.0992 10.7933 16.3098C11.3018 16.5204 11.8655 16.5573 12.3971 16.4149C12.9287 16.2724 13.3984 15.9585 13.7334 15.5219C14.0684 15.0853 14.25 14.5503 14.25 14V1.4075C14.2502 1.24705 14.2118 1.0889 14.138 0.946424C14.0642 0.803946 13.9572 0.681316 13.826 0.588891C13.6949 0.496466 13.5434 0.436959 13.3844 0.415396C13.2254 0.393833 13.0635 0.410846 12.9125 0.464999L4.9125 3.3225C4.71856 3.39203 4.55084 3.51977 4.43225 3.68825C4.31367 3.85673 4.25002 4.05772 4.25 4.26375V13.0837C3.77344 12.8086 3.21942 12.6984 2.67383 12.7702C2.12825 12.842 1.6216 13.0918 1.23245 13.4808C0.84329 13.8699 0.593373 14.3765 0.521449 14.9221C0.449526 15.4676 0.559614 16.0217 0.834644 16.4983C1.10967 16.9749 1.53428 17.3475 2.04261 17.5582C2.55094 17.769 3.11461 17.8061 3.64619 17.6639C4.17778 17.5216 4.64758 17.208 4.98275 16.7715C5.31793 16.3351 5.49974 15.8003 5.5 15.25V8.19125L13 5.51375V5.5125Z" fill="#4273F0"/>
</svg>
