<svg width="23" height="24" viewBox="0 0 23 24" fill="none" xmlns="http://www.w3.org/2000/svg">
<path d="M11.75 12C13.2418 12 14.6726 11.4074 15.7275 10.3525C16.7824 9.29758 17.375 7.86684 17.375 6.375C17.375 4.88316 16.7824 3.45242 15.7275 2.39752C14.6726 1.34263 13.2418 0.75 11.75 0.75C10.2582 0.75 8.82742 1.34263 7.77252 2.39752C6.71763 3.45242 6.125 4.88316 6.125 6.375C6.125 7.86684 6.71763 9.29758 7.77252 10.3525C8.82742 11.4074 10.2582 12 11.75 12ZM15.5 6.375C15.5 7.36956 15.1049 8.32339 14.4017 9.02665C13.6984 9.72991 12.7446 10.125 11.75 10.125C10.7554 10.125 9.80161 9.72991 9.09835 9.02665C8.39509 8.32339 8 7.36956 8 6.375C8 5.38044 8.39509 4.42661 9.09835 3.72335C9.80161 3.02009 10.7554 2.625 11.75 2.625C12.7446 2.625 13.6984 3.02009 14.4017 3.72335C15.1049 4.42661 15.5 5.38044 15.5 6.375ZM23 21.375C23 23.25 21.125 23.25 21.125 23.25H2.375C2.375 23.25 0.5 23.25 0.5 21.375C0.5 19.5 2.375 13.875 11.75 13.875C21.125 13.875 23 19.5 23 21.375ZM21.125 21.3675C21.1231 20.9062 20.8363 19.5187 19.565 18.2475C18.3425 17.025 16.0419 15.75 11.75 15.75C7.45625 15.75 5.1575 17.025 3.935 18.2475C2.66375 19.5187 2.37875 20.9062 2.375 21.3675H21.125Z" fill="#4273F0"/>
</svg>
